<?xml version="1.0" standalone="no"?>
<!DOCTYPE svg PUBLIC "-//W3C//DTD SVG 20010904//EN"
 "http://www.w3.org/TR/2001/REC-SVG-20010904/DTD/svg10.dtd">
<svg version="1.0" xmlns="http://www.w3.org/2000/svg"
 width="1280.000000pt" height="1280.000000pt" viewBox="0 0 1280.000000 1280.000000"
 preserveAspectRatio="xMidYMid meet">
<metadata>
Created by potrace 1.16, written by Peter Selinger 2001-2019
</metadata>
<g transform="translate(0.000000,1280.000000) scale(0.100000,-0.100000)"
fill="#000000" stroke="none">
<path d="M6291 12109 c-13 -11 -85 -54 -160 -96 -75 -42 -176 -101 -226 -131
-49 -30 -98 -58 -110 -63 -11 -5 -27 -13 -35 -19 -23 -15 -263 -155 -280 -163
-8 -4 -28 -16 -45 -27 -16 -11 -39 -24 -50 -30 -11 -6 -36 -20 -55 -31 -19
-12 -93 -55 -165 -97 -71 -41 -228 -133 -348 -204 -120 -70 -219 -128 -221
-128 -4 0 -447 -261 -476 -280 -8 -6 -22 -13 -30 -17 -16 -7 -224 -128 -570
-333 -118 -69 -222 -129 -230 -133 -8 -4 -28 -16 -45 -27 -16 -11 -36 -23 -44
-27 -8 -3 -104 -60 -214 -125 -109 -65 -200 -118 -202 -118 -1 0 -97 -55 -211
-123 -115 -68 -216 -126 -224 -130 -8 -4 -28 -16 -45 -27 -16 -11 -37 -23 -45
-27 -8 -4 -47 -26 -86 -50 -39 -24 -74 -43 -77 -43 -3 0 -25 -13 -49 -29 -24
-15 -70 -43 -103 -61 -33 -18 -104 -60 -158 -92 -55 -32 -101 -58 -103 -58 -2
0 -54 -29 -116 -66 -62 -36 -120 -69 -128 -73 -97 -50 -260 -157 -260 -170 1
-9 0 -1247 -2 -2751 -1 -1505 1 -2741 5 -2747 4 -7 20 -18 35 -26 41 -21 430
-245 473 -273 21 -13 41 -24 43 -24 3 0 60 -33 128 -73 68 -40 130 -76 138
-80 8 -4 31 -16 50 -28 19 -11 80 -47 135 -79 447 -259 543 -315 567 -331 15
-11 30 -19 32 -19 3 0 54 -29 113 -63 60 -35 178 -103 263 -152 85 -48 225
-129 310 -180 85 -51 197 -116 248 -146 52 -30 101 -58 111 -64 36 -22 178
-104 216 -125 22 -12 130 -75 240 -140 110 -64 315 -185 455 -268 140 -82 271
-159 290 -171 19 -11 44 -25 55 -30 19 -8 188 -107 225 -131 8 -6 22 -13 30
-17 8 -4 119 -68 245 -143 127 -75 261 -154 298 -176 38 -21 81 -47 95 -56 15
-10 34 -21 42 -25 33 -15 266 -156 283 -171 14 -13 22 -14 35 -4 32 22 334
202 340 202 3 0 13 6 21 14 13 11 349 207 446 260 11 6 31 19 45 27 25 17 325
191 370 216 14 8 39 23 55 33 17 11 39 24 50 30 11 6 34 19 50 30 17 10 41 25
55 33 39 21 452 262 570 331 58 34 112 65 120 69 8 4 29 16 47 27 128 77 1273
744 1413 822 19 11 114 66 210 123 320 187 465 271 480 278 8 4 29 16 45 27
17 11 39 24 50 30 11 5 47 26 80 45 33 19 67 38 75 42 8 4 48 26 88 50 40 24
74 43 76 43 3 0 50 27 106 60 56 33 103 60 105 60 2 0 48 26 102 58 54 32 105
61 114 64 14 6 16 120 18 1185 3 1606 -10 4363 -21 4363 -5 0 -21 8 -36 19
-15 10 -139 83 -277 161 -205 117 -501 288 -600 347 -11 7 -27 15 -35 19 -8 4
-71 41 -138 81 -68 40 -125 73 -127 73 -2 0 -102 58 -222 128 -289 170 -467
274 -528 307 -28 15 -57 34 -66 41 -8 8 -19 14 -22 14 -7 0 -61 31 -575 334
-155 92 -299 176 -320 187 -20 12 -77 45 -127 74 -49 29 -108 63 -130 75 -22
12 -130 75 -240 140 -475 279 -613 359 -660 385 -27 15 -56 33 -64 38 -14 12
-48 32 -71 43 -8 4 -73 42 -145 84 -71 42 -218 127 -325 189 -347 201 -400
233 -406 242 -8 13 -16 11 -43 -12z m-371 -5733 c0 -2628 -4 -4627 -9 -4630
-5 -3 -35 11 -67 32 -33 21 -153 93 -269 161 -115 68 -222 132 -237 142 -15
11 -30 19 -34 19 -3 0 -54 29 -113 64 -58 35 -124 74 -146 86 -38 21 -401 234
-475 279 -19 11 -42 24 -50 28 -8 4 -69 39 -135 78 -66 39 -127 74 -135 78 -8
4 -28 16 -45 26 -16 11 -50 31 -75 44 -25 14 -148 86 -273 161 -126 75 -230
136 -232 136 -2 0 -86 49 -187 108 -100 60 -237 140 -302 178 -66 38 -140 81
-165 96 -25 15 -53 31 -61 35 -8 4 -119 68 -246 143 -128 76 -238 140 -245
144 -8 4 -23 12 -34 19 -11 7 -52 30 -90 52 -39 22 -79 45 -90 52 -11 7 -27
15 -35 19 -45 22 -188 110 -208 127 -22 20 -22 20 -22 2317 0 2297 0 2297 22
2317 23 20 54 39 138 85 25 14 130 75 234 137 103 61 190 111 192 111 2 0 22
13 46 29 24 16 61 39 83 51 22 12 54 30 70 41 17 10 37 22 45 26 31 15 787
457 860 503 12 8 111 67 195 117 11 7 27 15 35 19 8 4 109 63 224 131 114 68
209 123 211 123 1 0 93 54 204 120 111 66 203 120 205 120 2 0 95 54 207 121
111 66 226 133 253 148 28 15 134 77 236 138 102 60 192 112 200 116 8 4 29
16 45 27 17 11 37 23 45 27 8 3 33 18 55 32 66 42 71 45 111 68 22 12 45 22
52 23 9 0 12 -931 12 -4624z m834 4615 c4 -7 191 -121 288 -176 48 -27 236
-136 433 -250 121 -70 229 -133 240 -139 11 -6 39 -24 62 -39 24 -15 45 -27
49 -27 3 0 26 -13 51 -30 24 -16 46 -30 48 -30 3 0 37 -19 77 -43 40 -24 80
-46 88 -50 8 -4 29 -16 45 -27 17 -11 37 -23 45 -27 17 -8 169 -96 455 -264
110 -64 223 -129 250 -144 28 -15 57 -34 66 -41 8 -8 18 -14 22 -14 3 0 84
-46 179 -102 95 -56 263 -154 373 -218 110 -64 304 -178 431 -253 127 -74 253
-148 280 -163 27 -15 105 -60 172 -101 68 -40 127 -73 130 -73 4 0 42 -22 85
-50 77 -49 77 -49 76 -247 0 -109 2 -1145 6 -2303 5 -1935 4 -2107 -11 -2128
-9 -13 -26 -27 -38 -33 -11 -5 -28 -13 -36 -19 -26 -17 -322 -190 -325 -190
-2 0 -76 -43 -164 -95 -88 -52 -162 -95 -165 -95 -2 0 -61 -34 -130 -75 -69
-41 -128 -75 -130 -75 -2 0 -39 -20 -80 -45 -42 -25 -78 -45 -80 -45 -2 0 -60
-33 -127 -73 -68 -40 -131 -76 -139 -80 -8 -4 -29 -16 -47 -27 -17 -10 -125
-74 -240 -141 -114 -67 -272 -159 -351 -205 -78 -46 -144 -84 -146 -84 -2 0
-60 -33 -128 -73 -67 -40 -130 -77 -138 -80 -8 -4 -31 -17 -50 -28 -56 -34
-250 -147 -445 -259 -99 -57 -272 -158 -385 -225 -113 -67 -212 -125 -220
-128 -8 -4 -28 -16 -45 -27 -16 -11 -39 -24 -50 -30 -11 -6 -33 -19 -50 -30
-16 -11 -37 -23 -45 -27 -8 -3 -57 -33 -109 -65 -52 -33 -100 -57 -107 -54
-12 5 -14 740 -16 4618 -2 2537 -1 4619 1 4626 4 14 37 16 45 3z"/>
<path d="M5410 10142 c0 -9 -55 -43 -410 -249 -80 -46 -152 -88 -160 -93 -8
-6 -24 -15 -35 -20 -11 -6 -33 -19 -50 -30 -16 -11 -37 -23 -45 -27 -8 -4 -58
-32 -110 -63 -52 -31 -102 -59 -110 -63 -8 -4 -28 -16 -45 -27 -16 -11 -39
-24 -50 -30 -11 -6 -33 -19 -50 -30 -16 -11 -37 -23 -45 -27 -8 -4 -85 -48
-170 -98 -85 -50 -162 -94 -170 -98 -8 -4 -28 -16 -45 -27 -16 -11 -37 -23
-45 -27 -8 -4 -78 -45 -155 -91 -77 -46 -160 -95 -185 -109 -25 -13 -58 -33
-75 -44 -16 -10 -39 -23 -50 -29 -28 -15 -46 -25 -248 -145 -315 -185 -531
-311 -547 -318 -8 -4 -45 -26 -83 -50 -67 -43 -67 -43 -67 -2072 0 -1395 3
-2032 11 -2041 9 -11 73 -49 234 -140 57 -32 297 -172 315 -184 8 -6 22 -13
30 -17 8 -4 80 -46 160 -93 81 -48 153 -89 160 -93 8 -4 29 -16 45 -27 17 -11
37 -23 45 -27 8 -4 120 -69 248 -145 128 -76 234 -138 236 -138 4 0 339 -197
376 -220 8 -6 24 -14 35 -19 11 -5 37 -21 58 -35 21 -14 40 -26 44 -26 3 0 49
-26 102 -58 53 -32 103 -61 111 -65 8 -4 29 -16 45 -27 17 -11 47 -29 67 -40
21 -11 108 -62 195 -113 87 -51 165 -96 173 -100 8 -4 24 -13 35 -20 11 -7 58
-34 105 -61 46 -27 95 -59 109 -72 28 -26 41 -30 41 -14 0 6 0 1705 0 3778 0
3353 -1 3767 -15 3770 -8 2 -15 -1 -15 -6z m-770 -3772 c0 -1532 -3 -2371 -10
-2375 -5 -3 -119 58 -252 136 -134 78 -274 160 -313 182 -38 22 -152 89 -253
148 -101 60 -185 109 -187 109 -2 0 -49 27 -105 60 -56 33 -103 60 -106 60 -8
0 -110 64 -131 83 -23 20 -23 20 -23 1593 0 865 3 1580 6 1589 4 9 25 25 48
37 33 17 232 133 406 237 19 11 44 25 55 31 11 6 34 19 50 30 17 11 37 23 45
27 8 4 70 40 138 80 68 40 125 73 128 73 3 0 17 8 32 19 23 16 314 186 414
243 17 9 36 14 44 11 12 -4 14 -355 14 -2373z"/>
<path d="M7185 6367 c0 -3357 2 -3782 15 -3779 8 2 22 10 30 17 14 13 198 123
230 138 8 4 31 17 50 28 103 62 399 234 425 247 17 9 33 20 37 26 4 6 8 542 8
1192 0 1112 1 1182 18 1196 9 8 73 46 142 85 167 95 196 111 255 143 28 15
101 55 163 89 61 35 119 61 128 59 21 -4 39 -38 127 -244 31 -71 67 -153 81
-181 14 -29 26 -55 26 -58 0 -2 18 -43 40 -89 21 -46 50 -111 64 -143 13 -32
40 -92 59 -133 19 -41 47 -104 61 -140 15 -36 33 -78 41 -95 28 -61 64 -144
130 -300 37 -88 82 -191 100 -230 53 -111 81 -178 88 -207 8 -32 42 -45 65
-25 9 8 96 58 192 112 96 54 222 125 280 159 58 34 118 68 134 76 16 8 31 20
33 28 5 11 -12 57 -47 137 -5 11 -26 61 -46 110 -21 50 -41 95 -45 100 -3 6
-53 118 -109 250 -56 132 -106 245 -109 250 -4 6 -24 49 -45 98 -20 48 -50
118 -67 155 -39 87 -44 98 -69 157 -12 28 -28 64 -36 82 -8 17 -14 33 -14 36
0 3 -14 36 -31 74 -87 194 -179 417 -179 434 0 20 22 40 85 74 28 14 73 40
100 56 28 17 64 37 80 45 17 8 37 19 45 24 56 37 422 249 439 255 21 6 21 6
21 869 0 863 0 863 -252 1011 -139 82 -362 213 -496 292 -134 79 -246 143
-249 143 -4 0 -14 6 -22 14 -9 7 -38 26 -66 41 -27 15 -135 78 -240 140 -104
61 -264 155 -355 207 -91 53 -181 105 -200 117 -19 11 -42 24 -50 28 -8 4 -69
39 -135 78 -66 39 -127 74 -135 78 -8 4 -31 17 -50 28 -72 44 -321 189 -485
284 -93 54 -184 108 -202 121 -17 13 -38 24 -45 24 -11 0 -13 -661 -13 -3783z
m955 2319 c74 -43 142 -82 150 -87 44 -26 268 -156 280 -162 8 -4 29 -16 45
-27 17 -11 39 -24 50 -30 11 -5 27 -14 35 -20 8 -5 94 -55 190 -111 389 -226
482 -283 495 -303 13 -17 15 -85 15 -408 0 -387 0 -387 -32 -411 -18 -14 -55
-37 -83 -52 -56 -30 -194 -109 -390 -223 -71 -41 -177 -102 -235 -135 -58 -33
-134 -77 -170 -97 -36 -21 -92 -52 -125 -71 -33 -18 -78 -43 -100 -56 -22 -12
-49 -27 -60 -33 -11 -6 -47 -26 -80 -46 -80 -47 -124 -66 -135 -59 -11 7 -14
2397 -4 2408 4 4 10 5 13 3 3 -2 67 -38 141 -80z"/>
</g>
</svg>
